<?xml version="1.0" encoding="iso-8859-1"?>
<!-- Generator: Adobe Illustrator 19.0.0, SVG Export Plug-In . SVG Version: 6.00 Build 0)  -->
<svg version="1.1" id="Layer_1" xmlns="http://www.w3.org/2000/svg" xmlns:xlink="http://www.w3.org/1999/xlink" x="0px" y="0px"
	 viewBox="0 0 512 512" style="enable-background:new 0 0 512 512;" xml:space="preserve">
<g>
	<g>
		<g>
			<path d="M384.067,72.038v15.744h40.153v408.476H111.926c-13.314,0-24.144-10.832-24.144-24.144V77.534
				c7.626,6.391,17.443,10.247,28.146,10.247h172.09V72.038h-172.09c-15.52,0-28.146-12.626-28.146-28.146
				s12.626-28.148,28.146-28.148H408.08V0H115.928C93.077,0,74.116,17.456,72.088,39.787l-0.05,432.325
				c0,21.995,17.894,39.888,39.888,39.888h328.038V72.038H384.067z"/>
			<rect x="103.919" y="24.012" width="296.148" height="15.744"/>
			<rect x="103.919" y="48.024" width="312.165" height="15.744"/>
			<path d="M375.93,72.038h-79.776v228.716l39.888-19.944l39.888,19.944V72.038z M360.187,275.28l-24.144-12.072l-24.144,12.072
				V87.781h48.289V275.28z"/>
			<rect x="112.064" y="95.921" width="15.744" height="392.206"/>
			<rect x="151.948" y="112.063" width="80.041" height="15.744"/>
			<rect x="312.029" y="456.24" width="16.008" height="15.744"/>
			<rect x="344.052" y="456.24" width="16.008" height="15.744"/>
			<rect x="376.064" y="456.24" width="16.008" height="15.744"/>
			<rect x="151.948" y="144.075" width="48.024" height="15.744"/>
			<rect x="151.948" y="176.087" width="48.024" height="15.744"/>
		</g>
	</g>
</g>
<g>
</g>
<g>
</g>
<g>
</g>
<g>
</g>
<g>
</g>
<g>
</g>
<g>
</g>
<g>
</g>
<g>
</g>
<g>
</g>
<g>
</g>
<g>
</g>
<g>
</g>
<g>
</g>
<g>
</g>
</svg>
